<?xml version="1.0" encoding="UTF-8" standalone="no"?>
<svg
   xmlns:dc="http://purl.org/dc/elements/1.1/"
   xmlns:cc="http://creativecommons.org/ns#"
   xmlns:rdf="http://www.w3.org/1999/02/22-rdf-syntax-ns#"
   xmlns:svg="http://www.w3.org/2000/svg"
   xmlns="http://www.w3.org/2000/svg"
   viewBox="0 0 45.620266 42.515804"
   height="42.515804"
   width="45.620266"
   id="svg2"
   version="1.1">
  <metadata
     id="metadata8">
    <rdf:RDF>
      <cc:Work
         rdf:about="">
        <dc:format>image/svg+xml</dc:format>
        <dc:type
           rdf:resource="http://purl.org/dc/dcmitype/StillImage" />
        <dc:title></dc:title>
      </cc:Work>
    </rdf:RDF>
  </metadata>
  <defs
     id="defs6" />
  <g
     transform="translate(-1222.7602,-1452.7844)"
     style="display:inline"
     id="layer1">
    <path
       d="m 1223.8218,1452.7944 c -1.3777,0.3367 -1.4405,2.249 0.042,2.6376 l 7.4236,-0.014 3.1153,21.0304 c -5.5635,1.7753 -4.6656,9.2451 0.7437,10.1154 l 4.6029,0.028 c -4.1558,2.6239 -2.609,8.6546 2.3997,8.6704 5.0719,-0.2512 5.7954,-6.7206 2.0489,-8.6704 l 12.728,-0.014 c -4.101,2.5875 -2.7044,8.5167 2.2032,8.7124 4.9607,-0.039 6.265,-6.5596 2.2032,-8.7124 l 5.9501,0.014 c 1.4396,-0.322 1.4619,-2.2322 0,-2.6095 h -31.8693 c -2.9514,-0.5764 -2.7282,-4.6228 -0.07,-5.1629 l 28.8382,-0.014 c 0.321,0 0.9137,-0.3406 1.0384,-0.8558 l 3.1294,-18.4771 c 0.1075,-0.6312 -0.4617,-1.464 -1.1507,-1.4731 h -32.8937 l -0.6315,-4.2931 c -0.077,-0.3645 -0.5777,-0.8718 -1.0385,-0.8838 z m 10.8618,7.8005 30.8308,0.014 -2.6382,15.601 -25.8941,-0.029 z m 24.4613,28.0308 c 0.5114,0 1.0188,0.2109 1.3868,0.5663 0.3798,0.3668 0.6062,0.8877 0.6153,1.4156 0.01,0.5278 -0.1993,1.0562 -0.5662,1.4359 -0.3669,0.3797 -0.8879,0.606 -1.4159,0.6151 -0.528,0.01 -1.0566,-0.1992 -1.4363,-0.566 -0.3798,-0.3668 -0.6062,-0.8877 -0.6153,-1.4156 -0.01,-0.5279 0.1993,-1.0562 0.5661,-1.4359 0.367,-0.3797 0.888,-0.606 1.416,-0.6151 0.016,-3e-4 0.033,-4e-4 0.049,-3e-4 z m -17.1781,5e-4 c 0.5272,0 1.0522,0.2115 1.427,0.5822 0.3747,0.3708 0.5945,0.8935 0.5973,1.4206 0,0.527 -0.2116,1.052 -0.5824,1.4266 -0.3709,0.3747 -0.8937,0.5944 -1.4208,0.5971 -0.5273,0 -1.0524,-0.2114 -1.4271,-0.5822 -0.3748,-0.3707 -0.5945,-0.8934 -0.5972,-1.4205 0,-0.5271 0.2115,-1.052 0.5823,-1.4267 0.3708,-0.3746 0.8937,-0.5943 1.4209,-0.5971 z"
       style="opacity:1;fill:#2e323f;fill-opacity:1;stroke:#000000;stroke-width:0.0199978;stroke-linecap:butt;stroke-linejoin:miter;stroke-miterlimit:4;stroke-dasharray:none;stroke-opacity:1"
       id="path24" />
  </g>
</svg>
