<?xml version="1.0" encoding="UTF-8" standalone="no"?>
<svg
   xmlns:dc="http://purl.org/dc/elements/1.1/"
   xmlns:cc="http://creativecommons.org/ns#"
   xmlns:rdf="http://www.w3.org/1999/02/22-rdf-syntax-ns#"
   xmlns:svg="http://www.w3.org/2000/svg"
   xmlns="http://www.w3.org/2000/svg"
   viewBox="0 0 1.0000007 1.0000007"
   height="1.0000007"
   width="1.0000007"
   id="svg2"
   version="1.1">
  <metadata
     id="metadata8">
    <rdf:RDF>
      <cc:Work
         rdf:about="">
        <dc:format>image/svg+xml</dc:format>
        <dc:type
           rdf:resource="http://purl.org/dc/dcmitype/StillImage" />
        <dc:title></dc:title>
      </cc:Work>
    </rdf:RDF>
  </metadata>
  <defs
     id="defs6" />
  <g
     style="display:inline"
     id="layer2"
     transform="translate(-0.66025034,-95.136077)">
    <rect
       y="95.136078"
       x="0.66025084"
       height="0.99999976"
       width="0.99999976"
       id="rect849"
       style="opacity:1;fill:#000000;fill-opacity:0.995951;stroke:#000000;stroke-width:0;stroke-miterlimit:4;stroke-dasharray:none;stroke-opacity:1" />
    <text
       xml:space="preserve"
       style="font-style:normal;font-weight:normal;font-size:5.33333px;line-height:1.35;font-family:sans-serif;fill:#1a1a1a;fill-opacity:1;stroke:#800000"
       x="4.8942118"
       y="96.567436"
       id="text849"><tspan
         id="tspan847"
         x="4.8942118"
         y="96.567436" /></text>
  </g>
  <g
     style="display:inline;opacity:1"
     id="layer1"
     transform="translate(-0.66025034,-95.136077)">
    <path
       d="m 0.79648813,95.280472 v 0.109274 H 1.1927531 c 0.1398583,0.03278 0.2214422,0.131128 0.2214422,0.229474 0,0.174838 -0.081584,0.240402 -0.2214422,0.284111 H 0.9013818 v -0.32782 h 0.081584 v 0.240401 h 0.1981325 c 0.074275,-0.01841 0.1498088,-0.0692 0.1515131,-0.174837 0.00156,-0.116773 -0.081407,-0.154703 -0.1515131,-0.174838 H 0.79648813 v 0.53544 H 1.1927531 c 0.1748228,-0.01093 0.3496456,-0.16391 0.3379908,-0.382457 0,-0.16391 -0.1864777,-0.338748 -0.3379908,-0.338748 z m 0.29672057,0.295032 c 0.082138,-0.002 0.1360546,0.0057 0.1366715,0.07246 -0.00265,0.06368 -0.054554,0.07992 -0.1352828,0.07636 z"
       style="opacity:1;fill:#fefefe;fill-opacity:1;stroke:#000000;stroke-width:0;stroke-linecap:butt;stroke-linejoin:miter;stroke-miterlimit:4;stroke-dasharray:none;stroke-opacity:1"
       id="path846" />
  </g>
</svg>
