<?xml version="1.0" encoding="UTF-8" standalone="no"?>
<svg
   xmlns:dc="http://purl.org/dc/elements/1.1/"
   xmlns:cc="http://creativecommons.org/ns#"
   xmlns:rdf="http://www.w3.org/1999/02/22-rdf-syntax-ns#"
   xmlns:svg="http://www.w3.org/2000/svg"
   xmlns="http://www.w3.org/2000/svg"
   viewBox="0 0 17.276779 4.9999998"
   height="5"
   width="17.276779"
   id="svg2"
   version="1.1">
  <metadata
     id="metadata8">
    <rdf:RDF>
      <cc:Work
         rdf:about="">
        <dc:format>image/svg+xml</dc:format>
        <dc:type
           rdf:resource="http://purl.org/dc/dcmitype/StillImage" />
        <dc:title></dc:title>
      </cc:Work>
    </rdf:RDF>
  </metadata>
  <defs
     id="defs6" />
  <g
     style="display:inline"
     id="layer2"
     transform="translate(1.5162891e-7,-94.997886)">
    <rect
       y="94.997887"
       x="3.4837109e-07"
       height="4.999999"
       width="17.276777"
       id="rect849"
       style="opacity:1;fill:#000000;fill-opacity:0.995951;stroke:#000000;stroke-width:0;stroke-miterlimit:4;stroke-dasharray:none;stroke-opacity:1" />
    <text
       xml:space="preserve"
       style="font-style:normal;font-weight:normal;font-size:5.33333px;line-height:1.35;font-family:sans-serif;fill:#1a1a1a;fill-opacity:1;stroke:#800000"
       x="4.8942118"
       y="96.567436"
       id="text849"><tspan
         id="tspan847"
         x="4.8942118"
         y="96.567436" /></text>
  </g>
  <g
     style="display:inline;opacity:1"
     id="layer1"
     transform="translate(1.5162891e-7,-94.997886)">
    <path
       d="m 1.2400785,95.791538 v 0.496032 h 1.6865077 c 0.595238,0.148809 0.9424601,0.595238 0.9424601,1.041666 0,0.793651 -0.3472221,1.09127 -0.9424601,1.289683 H 1.686507 v -1.488095 h 0.3472222 v 1.091269 H 2.876983 C 3.1930997,98.138503 3.5145707,97.90796 3.5218242,97.428443 3.528463,96.89837 3.1753568,96.726192 2.876983,96.634792 H 1.2400785 v 2.430555 h 1.6865077 c 0.7440475,-0.0496 1.4880949,-0.744047 1.4384918,-1.736111 0,-0.744047 -0.7936507,-1.537698 -1.4384918,-1.537698 z m 1.2628456,1.339253 c 0.3495795,-0.0093 0.5790495,0.02591 0.5816753,0.328944 -0.011294,0.289069 -0.2321835,0.362775 -0.5757649,0.346641 z"
       style="opacity:1;fill:#fefefe;fill-opacity:1;stroke:#000000;stroke-width:0;stroke-linecap:butt;stroke-linejoin:miter;stroke-miterlimit:4;stroke-dasharray:none;stroke-opacity:1"
       id="path846" />
    <text
       xml:space="preserve"
       style="font-style:normal;font-variant:normal;font-weight:normal;font-stretch:normal;font-size:4.10734px;line-height:1.25;font-family:Aquire;-inkscape-font-specification:Aquire;letter-spacing:0.213167px;word-spacing:0px;display:inline;fill:#ffffff;fill-opacity:1;stroke:none;stroke-width:0.102684"
       x="4.6548729"
       y="98.896606"
       id="text853"
       transform="scale(0.99817573,1.0018276)"><tspan
         id="tspan851"
         x="4.6548729"
         y="98.896606"
         style="font-style:normal;font-variant:normal;font-weight:normal;font-stretch:normal;font-family:Aquire;-inkscape-font-specification:Aquire;fill:#ffffff;stroke-width:0.102684">ukan</tspan></text>
  </g>
</svg>
